STARTFONT 2.1
COMMENT Created by fdbbdf
FONT times14bi
SIZE 14 78 78
FONTBOUNDINGBOX 18 16 -1 -5
STARTPROPERTIES 4
Ownership "  Copyright (c) 1984 Adobe Systems, Inc.  allchars 75orig/TB16.bits  WIDTHERR -251 -118  GUIDELINES -3 0 8 11 DONE  TOTAL BITMAP BYTES 3187  "
FONT_ASCENT 11
FONT_DESCENT 5
DEFAULT_CHAR 32
ENDPROPERTIES
CHARS 96
STARTCHAR ch-0
ENCODING -1 0
SWIDTH 0 0
DWIDTH 0 0
BBX 1 1 0 -1
BITMAP
0000
ENDCHAR
STARTCHAR sp
ENCODING -1 32
SWIDTH 0 0
DWIDTH 4 0
BBX 1 1 0 -1
BITMAP
0000
ENDCHAR
STARTCHAR !
ENCODING -1 33
SWIDTH 0 0
DWIDTH 6 0
BBX 5 11 1 -1
BITMAP
3800
3800
3800
3000
7000
6000
6000
4000
0000
c000
c000
ENDCHAR
STARTCHAR "
ENCODING -1 34
SWIDTH 0 0
DWIDTH 9 0
BBX 6 5 1 5
BITMAP
cc00
cc00
cc00
4400
4400
ENDCHAR
STARTCHAR #
ENCODING -1 35
SWIDTH 0 0
DWIDTH 11 0
BBX 9 11 1 -1
BITMAP
1b00
1b00
1b00
7f80
3600
3600
3600
ff00
6c00
6c00
6c00
ENDCHAR
STARTCHAR $
ENCODING -1 36
SWIDTH 0 0
DWIDTH 10 0
BBX 8 14 1 -3
BITMAP
0400
3e00
6f00
6b00
7900
7800
3c00
1e00
9e00
9600
d600
7c00
3800
2000
ENDCHAR
STARTCHAR %
ENCODING -1 37
SWIDTH 0 0
DWIDTH 14 0
BBX 12 11 1 -1
BITMAP
3980
6580
c700
cf00
fe00
77e0
0f90
0f10
1b30
1be0
31c0
ENDCHAR
STARTCHAR &
ENCODING -1 38
SWIDTH 0 0
DWIDTH 14 0
BBX 12 11 1 -1
BITMAP
0f00
1d80
1d80
1f00
1e00
3cf0
7e60
eec0
cf80
e7f0
7dc0
ENDCHAR
STARTCHAR '
ENCODING -1 39
SWIDTH 0 0
DWIDTH 5 0
BBX 3 5 1 5
BITMAP
e000
e000
6000
6000
c000
ENDCHAR
STARTCHAR (
ENCODING -1 40
SWIDTH 0 0
DWIDTH 8 0
BBX 6 14 1 -4
BITMAP
0c00
1800
3000
6000
6000
c000
c000
c000
c000
c000
c000
4000
6000
2000
ENDCHAR
STARTCHAR )
ENCODING -1 41
SWIDTH 0 0
DWIDTH 8 0
BBX 6 14 1 -4
BITMAP
1000
1800
0800
0c00
0c00
0c00
0c00
0c00
0c00
1800
1800
3000
6000
c000
ENDCHAR
STARTCHAR *
ENCODING -1 42
SWIDTH 0 0
DWIDTH 9 0
BBX 7 7 1 3
BITMAP
1000
d600
fe00
3800
fe00
d600
1000
ENDCHAR
STARTCHAR +
ENCODING -1 43
SWIDTH 0 0
DWIDTH 10 0
BBX 8 8 1 0
BITMAP
1800
1800
1800
ff00
ff00
1800
1800
1800
ENDCHAR
STARTCHAR ,
ENCODING -1 44
SWIDTH 0 0
DWIDTH 6 0
BBX 4 5 1 -4
BITMAP
7000
7000
3000
6000
c000
ENDCHAR
STARTCHAR -
ENCODING -1 45
SWIDTH 0 0
DWIDTH 7 0
BBX 5 2 1 3
BITMAP
f800
f800
ENDCHAR
STARTCHAR .
ENCODING -1 46
SWIDTH 0 0
DWIDTH 5 0
BBX 3 2 1 -1
BITMAP
e000
e000
ENDCHAR
STARTCHAR /
ENCODING -1 47
SWIDTH 0 0
DWIDTH 7 0
BBX 5 12 1 -1
BITMAP
1800
1800
1800
3000
3000
3000
6000
6000
6000
c000
c000
c000
ENDCHAR
STARTCHAR 0
ENCODING -1 48
SWIDTH 0 0
DWIDTH 10 0
BBX 8 11 1 -1
BITMAP
1e00
3b00
7300
7300
e700
e700
e700
ce00
ce00
dc00
7800
ENDCHAR
STARTCHAR 1
ENCODING -1 49
SWIDTH 0 0
DWIDTH 9 0
BBX 7 11 1 -1
BITMAP
0e00
3e00
0e00
1c00
1c00
1c00
1c00
3800
3800
3800
fc00
ENDCHAR
STARTCHAR 2
ENCODING -1 50
SWIDTH 0 0
DWIDTH 10 0
BBX 8 11 1 -1
BITMAP
1e00
3700
2700
0700
0700
0e00
0c00
1800
3300
7e00
fe00
ENDCHAR
STARTCHAR 3
ENCODING -1 51
SWIDTH 0 0
DWIDTH 10 0
BBX 8 11 1 -1
BITMAP
1e00
3700
2700
0700
0e00
1e00
0f00
0700
0700
ee00
7800
ENDCHAR
STARTCHAR 4
ENCODING -1 52
SWIDTH 0 0
DWIDTH 10 0
BBX 8 11 1 -1
BITMAP
0300
0700
0f00
1f00
3600
6e00
ce00
ff00
fc00
1c00
1c00
ENDCHAR
STARTCHAR 5
ENCODING -1 53
SWIDTH 0 0
DWIDTH 10 0
BBX 8 11 1 -1
BITMAP
1f00
3e00
2000
7800
7c00
1e00
0e00
0600
0600
cc00
f800
ENDCHAR
STARTCHAR 6
ENCODING -1 54
SWIDTH 0 0
DWIDTH 10 0
BBX 8 11 1 -1
BITMAP
0700
1e00
3800
7000
7c00
e600
e600
ce00
ce00
dc00
7800
ENDCHAR
STARTCHAR 7
ENCODING -1 55
SWIDTH 0 0
DWIDTH 9 0
BBX 8 11 1 -1
BITMAP
7f00
fe00
8600
0c00
1800
1800
3000
7000
6000
e000
c000
ENDCHAR
STARTCHAR 8
ENCODING -1 56
SWIDTH 0 0
DWIDTH 10 0
BBX 8 11 1 -1
BITMAP
1e00
7700
6300
7700
3e00
7f00
c700
c700
c700
ee00
7c00
ENDCHAR
STARTCHAR 9
ENCODING -1 57
SWIDTH 0 0
DWIDTH 10 0
BBX 8 11 1 -1
BITMAP
1e00
3b00
7300
7300
6700
6700
3e00
0e00
1c00
3800
e000
ENDCHAR
STARTCHAR :
ENCODING -1 58
SWIDTH 0 0
DWIDTH 5 0
BBX 4 8 1 -1
BITMAP
0000
7000
7000
0000
0000
0000
e000
e000
ENDCHAR
STARTCHAR ;
ENCODING -1 59
SWIDTH 0 0
DWIDTH 5 0
BBX 5 10 0 -4
BITMAP
3800
3800
0000
0000
0000
7000
7000
3000
6000
c000
ENDCHAR
STARTCHAR <
ENCODING -1 60
SWIDTH 0 0
DWIDTH 11 0
BBX 10 8 1 -1
BITMAP
01c0
0fc0
3e00
f000
f000
3e00
0fc0
01c0
ENDCHAR
STARTCHAR =
ENCODING -1 61
SWIDTH 0 0
DWIDTH 9 0
BBX 7 5 1 1
BITMAP
fe00
fe00
0000
fe00
fe00
ENDCHAR
STARTCHAR >
ENCODING -1 62
SWIDTH 0 0
DWIDTH 12 0
BBX 10 8 1 -1
BITMAP
e000
fc00
1f00
03c0
03c0
1f00
fc00
e000
ENDCHAR
STARTCHAR ?
ENCODING -1 63
SWIDTH 0 0
DWIDTH 9 0
BBX 7 11 1 -1
BITMAP
7c00
de00
ce00
ce00
1c00
3800
3800
3000
0000
7000
7000
ENDCHAR
STARTCHAR @
ENCODING -1 64
SWIDTH 0 0
DWIDTH 16 0
BBX 14 15 1 -4
BITMAP
07c0
0f70
3c18
3008
73ac
67e4
e664
eee4
ccec
ccc8
eff8
6770
7000
3e30
0fc0
ENDCHAR
STARTCHAR A
ENCODING -1 65
SWIDTH 0 0
DWIDTH 12 0
BBX 11 11 1 -1
BITMAP
0180
0380
0380
0780
0d80
09c0
19c0
3fc0
21c0
61c0
f3e0
ENDCHAR
STARTCHAR B
ENCODING -1 66
SWIDTH 0 0
DWIDTH 12 0
BBX 11 11 1 -1
BITMAP
3fc0
1ce0
1c60
1860
38c0
3fc0
38e0
70e0
70e0
71c0
ff80
ENDCHAR
STARTCHAR C
ENCODING -1 67
SWIDTH 0 0
DWIDTH 11 0
BBX 11 11 1 -1
BITMAP
0fe0
1ce0
3860
7000
f000
e000
e000
e000
e080
7180
3f00
ENDCHAR
STARTCHAR D
ENCODING -1 68
SWIDTH 0 0
DWIDTH 13 0
BBX 12 11 1 -1
BITMAP
3fc0
1ce0
1c70
1c70
3870
3870
3870
70f0
70e0
71c0
ff80
ENDCHAR
STARTCHAR E
ENCODING -1 69
SWIDTH 0 0
DWIDTH 12 0
BBX 12 11 1 -1
BITMAP
3ff0
1c30
1c10
1cc0
38c0
3f80
3980
7180
7060
70e0
ffc0
ENDCHAR
STARTCHAR F
ENCODING -1 70
SWIDTH 0 0
DWIDTH 12 0
BBX 12 11 1 -1
BITMAP
3ff0
1c30
1c10
1d80
3980
3f00
3b00
7300
7000
7000
f800
ENDCHAR
STARTCHAR G
ENCODING -1 71
SWIDTH 0 0
DWIDTH 13 0
BBX 12 11 1 -1
BITMAP
0fe0
1c60
3820
7000
f000
e1f0
e0e0
e0e0
e1c0
71c0
3f00
ENDCHAR
STARTCHAR H
ENCODING -1 72
SWIDTH 0 0
DWIDTH 14 0
BBX 13 11 1 -1
BITMAP
3ef8
1c70
1c70
1c70
38e0
3fe0
38e0
71c0
71c0
71c0
fbe0
ENDCHAR
STARTCHAR I
ENCODING -1 73
SWIDTH 0 0
DWIDTH 7 0
BBX 7 11 1 -1
BITMAP
3e00
1c00
1c00
1c00
3800
3800
3800
7000
7000
7000
f800
ENDCHAR
STARTCHAR J
ENCODING -1 74
SWIDTH 0 0
DWIDTH 8 0
BBX 9 13 0 -3
BITMAP
0f80
0700
0700
0700
0e00
0e00
0e00
0e00
1c00
1c00
dc00
dc00
7800
ENDCHAR
STARTCHAR K
ENCODING -1 75
SWIDTH 0 0
DWIDTH 13 0
BBX 13 11 1 -1
BITMAP
3e78
1c60
1cc0
1d80
3f00
3f00
3b80
7380
71c0
71c0
f9e0
ENDCHAR
STARTCHAR L
ENCODING -1 76
SWIDTH 0 0
DWIDTH 11 0
BBX 10 11 1 -1
BITMAP
3e00
1c00
1c00
1c00
3800
3800
3800
7000
70c0
71c0
ff80
ENDCHAR
STARTCHAR M
ENCODING -1 77
SWIDTH 0 0
DWIDTH 16 0
BBX 16 11 1 -1
BITMAP
3c1f
1c1e
1c3c
3e7c
3e5c
2eb8
2fb8
6f38
4f70
4670
e4f8
ENDCHAR
STARTCHAR N
ENCODING -1 78
SWIDTH 0 0
DWIDTH 12 0
BBX 12 11 1 -1
BITMAP
3c70
1c20
1e20
3e60
2f40
2740
2740
63c0
4380
4180
e180
ENDCHAR
STARTCHAR O
ENCODING -1 79
SWIDTH 0 0
DWIDTH 11 0
BBX 10 11 1 -1
BITMAP
0f00
3980
70c0
70c0
e1c0
e1c0
e1c0
c380
c380
6700
3c00
ENDCHAR
STARTCHAR P
ENCODING -1 80
SWIDTH 0 0
DWIDTH 13 0
BBX 12 11 1 -1
BITMAP
3fe0
1cf0
1c70
1c70
38f0
3fe0
3800
7000
7000
7000
f800
ENDCHAR
STARTCHAR Q
ENCODING -1 81
SWIDTH 0 0
DWIDTH 11 0
BBX 10 15 1 -5
BITMAP
0f00
3980
70c0
70c0
e1c0
e1c0
e1c0
c380
c380
6700
3e00
2040
78c0
ff80
9f00
ENDCHAR
STARTCHAR R
ENCODING -1 82
SWIDTH 0 0
DWIDTH 14 0
BBX 12 11 1 -1
BITMAP
3fe0
1c70
1c70
1c70
38e0
3fc0
3b80
71c0
71c0
70e0
f9f0
ENDCHAR
STARTCHAR S
ENCODING -1 83
SWIDTH 0 0
DWIDTH 10 0
BBX 9 11 1 -1
BITMAP
1f80
3b80
3180
3800
3c00
1e00
0f00
c700
c300
e700
fe00
ENDCHAR
STARTCHAR T
ENCODING -1 84
SWIDTH 0 0
DWIDTH 12 0
BBX 11 11 1 -1
BITMAP
ffe0
ce60
ce60
0e00
1c00
1c00
1c00
3800
3800
3800
7c00
ENDCHAR
STARTCHAR U
ENCODING -1 85
SWIDTH 0 0
DWIDTH 11 0
BBX 11 11 1 -1
BITMAP
7ce0
3840
3840
38c0
7080
7080
7180
e100
e100
f700
7c00
ENDCHAR
STARTCHAR V
ENCODING -1 86
SWIDTH 0 0
DWIDTH 10 0
BBX 10 11 1 -1
BITMAP
f9c0
7080
7180
7300
7300
7600
3c00
3c00
3800
3800
3800
ENDCHAR
STARTCHAR W
ENCODING -1 87
SWIDTH 0 0
DWIDTH 14 0
BBX 14 11 1 -1
BITMAP
fbdc
7188
7398
7390
77f0
7de0
3de0
39c0
38c0
3080
3080
ENDCHAR
STARTCHAR X
ENCODING -1 88
SWIDTH 0 0
DWIDTH 12 0
BBX 11 11 1 -1
BITMAP
78e0
38c0
1d80
1f00
0e00
0f00
0f00
1b80
3380
61c0
f3e0
ENDCHAR
STARTCHAR Y
ENCODING -1 89
SWIDTH 0 0
DWIDTH 10 0
BBX 10 11 1 -1
BITMAP
f9c0
7080
7100
3a00
3e00
1c00
1c00
1c00
3800
3800
7c00
ENDCHAR
STARTCHAR Z
ENCODING -1 90
SWIDTH 0 0
DWIDTH 11 0
BBX 10 11 1 -1
BITMAP
3fc0
73c0
6780
0700
0e00
1e00
3c00
38c0
71c0
f380
ff80
ENDCHAR
STARTCHAR [
ENCODING -1 91
SWIDTH 0 0
DWIDTH 8 0
BBX 7 15 1 -4
BITMAP
1e00
1800
3800
3000
3000
3000
7000
6000
6000
6000
6000
e000
c000
c000
f000
ENDCHAR
STARTCHAR \
ENCODING -1 92
SWIDTH 0 0
DWIDTH 9 0
BBX 8 12 1 -1
BITMAP
c000
e000
6000
7000
3000
3800
1800
1c00
0c00
0e00
0600
0700
ENDCHAR
STARTCHAR ]
ENCODING -1 93
SWIDTH 0 0
DWIDTH 7 0
BBX 6 15 1 -4
BITMAP
1c00
0c00
0c00
0c00
0c00
1c00
1800
1800
1800
1800
3000
3000
3000
3000
f000
ENDCHAR
STARTCHAR ^
ENCODING -1 94
SWIDTH 0 0
DWIDTH 10 0
BBX 8 7 1 3
BITMAP
1800
3c00
3c00
7e00
6600
e700
c300
ENDCHAR
STARTCHAR _
ENCODING -1 95
SWIDTH 0 0
DWIDTH 9 0
BBX 9 3 1 -4
BITMAP
0000
ff80
ff80
ENDCHAR
STARTCHAR `
ENCODING -1 96
SWIDTH 0 0
DWIDTH 5 0
BBX 3 4 1 6
BITMAP
6000
c000
e000
e000
ENDCHAR
STARTCHAR a
ENCODING -1 97
SWIDTH 0 0
DWIDTH 9 0
BBX 8 8 1 -1
BITMAP
1f00
7700
6700
e600
ce00
ce00
ef00
7e00
ENDCHAR
STARTCHAR b
ENCODING -1 98
SWIDTH 0 0
DWIDTH 10 0
BBX 9 11 1 -1
BITMAP
7800
3800
3800
3f00
7b00
7380
7380
e780
e700
ef00
7c00
ENDCHAR
STARTCHAR c
ENCODING -1 99
SWIDTH 0 0
DWIDTH 9 0
BBX 8 8 1 -1
BITMAP
1e00
7300
6300
e000
e000
e200
e600
7c00
ENDCHAR
STARTCHAR d
ENCODING -1 100
SWIDTH 0 0
DWIDTH 10 0
BBX 9 11 1 -1
BITMAP
0780
0380
0380
3b80
7700
e700
e700
c700
ce00
ee00
7f00
ENDCHAR
STARTCHAR e
ENCODING -1 101
SWIDTH 0 0
DWIDTH 9 0
BBX 8 8 1 -1
BITMAP
1e00
7300
7300
ff00
e000
e200
e600
7c00
ENDCHAR
STARTCHAR f
ENCODING -1 102
SWIDTH 0 0
DWIDTH 8 0
BBX 10 16 -1 -5
BITMAP
0380
06c0
06c0
0e00
0e00
3f80
0e00
0e00
0e00
1c00
1c00
1c00
1c00
dc00
d800
7000
ENDCHAR
STARTCHAR g
ENCODING -1 103
SWIDTH 0 0
DWIDTH 10 0
BBX 10 12 0 -5
BITMAP
1ec0
3bc0
7380
7380
7700
3e00
3800
7e00
e700
e700
e700
7c00
ENDCHAR
STARTCHAR h
ENCODING -1 104
SWIDTH 0 0
DWIDTH 10 0
BBX 9 11 1 -1
BITMAP
7800
3800
3800
3b00
3f80
7380
7380
7700
e700
e780
e700
ENDCHAR
STARTCHAR i
ENCODING -1 105
SWIDTH 0 0
DWIDTH 6 0
BBX 5 11 1 -1
BITMAP
3800
3800
0000
f800
7000
7000
7000
e000
e000
f800
7000
ENDCHAR
STARTCHAR j
ENCODING -1 106
SWIDTH 0 0
DWIDTH 8 0
BBX 8 14 0 -4
BITMAP
0700
0700
0000
1f00
0e00
0e00
0e00
1c00
1c00
1c00
1c00
d800
d800
7000
ENDCHAR
STARTCHAR k
ENCODING -1 107
SWIDTH 0 0
DWIDTH 10 0
BBX 9 11 1 -1
BITMAP
7800
3800
3800
3b80
7700
7c00
7c00
7e00
ee00
e780
e700
ENDCHAR
STARTCHAR l
ENCODING -1 108
SWIDTH 0 0
DWIDTH 6 0
BBX 5 11 1 -1
BITMAP
7800
3800
3800
7000
7000
7000
7000
e000
e000
f800
7000
ENDCHAR
STARTCHAR m
ENCODING -1 109
SWIDTH 0 0
DWIDTH 14 0
BBX 13 8 1 -1
BITMAP
7770
3ff8
3bb8
3bb8
7770
7770
7778
e670
ENDCHAR
STARTCHAR n
ENCODING -1 110
SWIDTH 0 0
DWIDTH 10 0
BBX 9 8 1 -1
BITMAP
f700
7f80
7380
7380
e700
e700
e780
e700
ENDCHAR
STARTCHAR o
ENCODING -1 111
SWIDTH 0 0
DWIDTH 9 0
BBX 8 8 1 -1
BITMAP
1e00
7700
6700
e700
e700
e600
ee00
7800
ENDCHAR
STARTCHAR p
ENCODING -1 112
SWIDTH 0 0
DWIDTH 10 0
BBX 10 12 0 -5
BITMAP
3f80
1dc0
1cc0
1cc0
39c0
39c0
3b80
3f00
7000
7000
7000
f800
ENDCHAR
STARTCHAR q
ENCODING -1 113
SWIDTH 0 0
DWIDTH 9 0
BBX 8 12 1 -5
BITMAP
1f00
7700
6700
e700
c700
ce00
ee00
7e00
0e00
1c00
1c00
3e00
ENDCHAR
STARTCHAR r
ENCODING -1 114
SWIDTH 0 0
DWIDTH 8 0
BBX 7 8 1 -1
BITMAP
7600
7e00
7000
7000
7000
e000
e000
e000
ENDCHAR
STARTCHAR s
ENCODING -1 115
SWIDTH 0 0
DWIDTH 8 0
BBX 7 8 1 -1
BITMAP
3e00
7600
6600
7000
3800
9c00
dc00
f800
ENDCHAR
STARTCHAR t
ENCODING -1 116
SWIDTH 0 0
DWIDTH 6 0
BBX 5 10 1 -1
BITMAP
1000
3000
f800
7000
7000
7000
e000
e000
e000
7000
ENDCHAR
STARTCHAR u
ENCODING -1 117
SWIDTH 0 0
DWIDTH 10 0
BBX 9 8 1 -1
BITMAP
f380
7380
7380
e700
e700
e700
ff00
7780
ENDCHAR
STARTCHAR v
ENCODING -1 118
SWIDTH 0 0
DWIDTH 9 0
BBX 8 8 1 -1
BITMAP
e700
e700
e600
7600
7400
7800
7000
6000
ENDCHAR
STARTCHAR w
ENCODING -1 119
SWIDTH 0 0
DWIDTH 13 0
BBX 12 8 1 -1
BITMAP
e670
e670
e660
7760
7740
7b80
7380
6300
ENDCHAR
STARTCHAR x
ENCODING -1 120
SWIDTH 0 0
DWIDTH 10 0
BBX 9 8 1 -1
BITMAP
f380
7300
7600
3c00
1c00
3e00
6700
c780
ENDCHAR
STARTCHAR y
ENCODING -1 121
SWIDTH 0 0
DWIDTH 10 0
BBX 10 11 0 -4
BITMAP
39c0
39c0
3980
1d80
1d00
1e00
1c00
1800
1800
d000
e000
ENDCHAR
STARTCHAR z
ENCODING -1 122
SWIDTH 0 0
DWIDTH 10 0
BBX 9 8 1 -1
BITMAP
3f80
7f00
4600
0c00
1800
3080
7f80
ff00
ENDCHAR
STARTCHAR {
ENCODING -1 123
SWIDTH 0 0
DWIDTH 7 0
BBX 6 15 1 -4
BITMAP
0c00
1800
3000
3000
3000
6000
c000
6000
6000
6000
6000
c000
c000
c000
6000
ENDCHAR
STARTCHAR |
ENCODING -1 124
SWIDTH 0 0
DWIDTH 8 0
BBX 7 12 1 -1
BITMAP
0600
0600
0c00
0c00
1800
1800
3000
3000
6000
6000
c000
c000
ENDCHAR
STARTCHAR }
ENCODING -1 125
SWIDTH 0 0
DWIDTH 7 0
BBX 6 15 1 -4
BITMAP
6000
3000
1800
1800
1800
1800
1800
0c00
1800
3000
3000
3000
6000
6000
c000
ENDCHAR
STARTCHAR ~
ENCODING -1 126
SWIDTH 0 0
DWIDTH 10 0
BBX 8 3 1 2
BITMAP
7300
db00
ce00
ENDCHAR
ENDFONT
